<svg xmlns="http://www.w3.org/2000/svg" viewBox="0 0 512 512" width="512" height="512">
  <!-- Book Cover/Binding (Gold) -->
  <path d="M464,64H352c-47.6,0-91.3,37.3-108.8,55c0,0,0,0,0,0C240.2,122,236.9,128,232,128s-8.2-6-11.2-9c0,0,0,0,0,0
    C203.3,101.3,159.6,64,112,64H0v352h112c30.9,0,56-25.1,56-56V168c0-13.3,10.7-24,24-24h32v241.6c-27.4,6.7-48,31.5-48,60.9
    c0,34.5,27.3,62.5,61.1,63.9l0.9,0h8c33.8-1.5,61.1-29.4,61.1-63.9c0-29.4-20.6-54.2-48-60.9V144h32c13.3,0,24,10.7,24,24v192
    c0,30.9,25.1,56,56,56h112V64z" fill="#d4af37"/>
  
  <!-- Pages (Deep Blue) -->
  <path d="M0,64h112c30.2,0,58.3,14.5,77.5,37.5c3.2-3.1,6.7-5.9,10.5-8.3c8.5-5.3,17.6-9.6,27-12.8c-17.7-29.3-49.3-48.4-85-48.4H0
    c-17.7,0-32,14.3-32,32v320c0,17.7,14.3,32,32,32h112c17.7,0,32-14.3,32-32V168c0-4.4-3.6-8-8-8H112c-4.4,0-8,3.6-8,8v192
    c0,4.4-3.6,8-8,8H32c-4.4,0-8-3.6-8-8V96C24,78.3,10.7,64,0,64z" fill="#0d2c54" opacity="0.9"/>
    
  <path d="M464,64h-32c-35.7,0-67.3,19.1-85,48.4c9.4,3.2,18.5,7.5,27,12.8c3.8,2.4,7.3,5.2,10.5,8.3c19.2-23,47.3-37.5,77.5-37.5h80
    v352c0,4.4-3.6,8-8,8h-64c-4.4,0-8-3.6-8-8V256c0-4.4-3.6-8-8-8H400c-4.4,0-8,3.6-8,8V416c0,17.7,14.3,32,32,32h112
    c17.7,0,32-14.3,32-32V96C512,78.3,492.3,64,464,64z" fill="#0d2c54" opacity="0.9"/>
</svg>
